<svg xmlns="http://www.w3.org/2000/svg" xmlns:xlink="http://www.w3.org/1999/xlink" width="345" height="49.033" viewBox="0 0 345 49.033">
  <defs>
    <linearGradient id="linear-gradient" x1="0.5" x2="0.5" y2="1" gradientUnits="objectBoundingBox">
      <stop offset="0" stop-color="#fff"/>
      <stop offset="1" stop-color="#013c8a"/>
    </linearGradient>
  </defs>
  <path id="Path_22659" data-name="Path 22659" d="M7.594-71.049v-47.728h20.6a21.064,21.064,0,0,1,9.3,1.934,14.483,14.483,0,0,1,6.2,5.57,16.442,16.442,0,0,1,2.214,8.716,15.613,15.613,0,0,1-2.272,8.646A14.111,14.111,0,0,1,37.272-88.6,23.582,23.582,0,0,1,27.729-86.8h-12.3V-96.87h9.695a11.792,11.792,0,0,0,3.9-.571,4.924,4.924,0,0,0,2.494-1.829,5.646,5.646,0,0,0,.874-3.286,5.86,5.86,0,0,0-.874-3.344,5.1,5.1,0,0,0-2.494-1.911,10.976,10.976,0,0,0-3.9-.618H20.551v37.38ZM35.559-92.955,47.491-71.049H33.415L21.763-92.955Zm62.083-1.958a26.872,26.872,0,0,1-3.1,13.435A20.7,20.7,0,0,1,86.177-73.2,24.568,24.568,0,0,1,74.431-70.4a24.434,24.434,0,0,1-11.78-2.831,20.806,20.806,0,0,1-8.343-8.3A26.851,26.851,0,0,1,51.22-94.913a26.954,26.954,0,0,1,3.088-13.435,20.65,20.65,0,0,1,8.343-8.273,24.6,24.6,0,0,1,11.78-2.808,24.568,24.568,0,0,1,11.745,2.808,20.7,20.7,0,0,1,8.366,8.273A26.872,26.872,0,0,1,97.642-94.913Zm-13.33,0a20.306,20.306,0,0,0-1.13-7.236,9.3,9.3,0,0,0-3.333-4.474,9.28,9.28,0,0,0-5.418-1.526,9.28,9.28,0,0,0-5.418,1.526,9.3,9.3,0,0,0-3.333,4.474,20.306,20.306,0,0,0-1.13,7.236,20.306,20.306,0,0,0,1.13,7.236A9.3,9.3,0,0,0,69.013-83.2a9.281,9.281,0,0,0,5.418,1.526A9.281,9.281,0,0,0,79.849-83.2a9.3,9.3,0,0,0,3.333-4.474A20.306,20.306,0,0,0,84.312-94.913Zm28.711,23.864H99.041l15.754-47.728h17.711L148.26-71.049H134.277l-10.44-34.584h-.373Zm-2.61-18.83H136.7v9.695H110.413Zm60.778,18.83H152.827v-47.728H171a26.777,26.777,0,0,1,12.736,2.855,19.918,19.918,0,0,1,8.3,8.2,26.322,26.322,0,0,1,2.925,12.806,26.407,26.407,0,0,1-2.913,12.806,19.9,19.9,0,0,1-8.25,8.2A26.359,26.359,0,0,1,171.191-71.049Zm-5.407-11h4.941a14.511,14.511,0,0,0,6.048-1.142,7.753,7.753,0,0,0,3.822-3.938,18.661,18.661,0,0,0,1.317-7.784,18.374,18.374,0,0,0-1.34-7.784,7.8,7.8,0,0,0-3.915-3.938,15.525,15.525,0,0,0-6.3-1.142h-4.568Zm35.143-36.728h16.127l11.093,27.033h.559L239.8-118.776h16.127v47.728H243.249V-98.641h-.373l-10.627,27.22h-7.644L213.978-98.828h-.373v27.779H200.928Zm73.549,47.728H260.494l15.754-47.728H293.96l15.754,47.728H295.731l-10.44-34.584h-.373Zm-2.61-18.83h26.287v9.695H271.867Zm42.414,18.83v-47.728h20.6a19.685,19.685,0,0,1,9.3,2.1,15.223,15.223,0,0,1,6.2,5.9,17.316,17.316,0,0,1,2.214,8.879,16.812,16.812,0,0,1-2.272,8.879,15.094,15.094,0,0,1-6.362,5.78,21.236,21.236,0,0,1-9.543,2.027h-12.3V-95.285h9.695a8.7,8.7,0,0,0,3.9-.8,5.807,5.807,0,0,0,2.494-2.3,6.836,6.836,0,0,0,.874-3.519,6.7,6.7,0,0,0-.874-3.507,5.729,5.729,0,0,0-2.494-2.237,8.924,8.924,0,0,0-3.9-.781h-4.568v37.38Z" transform="translate(-7.594 119.429)" opacity="0.14" fill="url(#linear-gradient)"/>
</svg>
