<svg xmlns="http://www.w3.org/2000/svg" width="32" height="32" viewBox="0 0 32 32">
  <g id="opensea" transform="translate(0 0)">
    <path id="Path_19735" data-name="Path 19735" d="M32,16A16,16,0,1,1,16,0,16,16,0,0,1,32,16Z" transform="translate(0 0)" fill="#fff"/>
    <path id="Path_19736" data-name="Path 19736" d="M24.619,37.473l.069-.109,4.162-6.511a.142.142,0,0,1,.25.018c.7,1.558,1.3,3.5,1.014,4.7a7.351,7.351,0,0,1-.819,1.79c-.048.09-.1.179-.156.265a.141.141,0,0,1-.118.062H24.741A.142.142,0,0,1,24.619,37.473Z" transform="translate(-16.726 -20.935)" fill="#2081e2"/>
    <path id="Path_19737" data-name="Path 19737" d="M40.726,31.347v1.031a.148.148,0,0,1-.089.135A5.125,5.125,0,0,0,38.754,33.8c-1.17,1.629-2.065,3.958-4.064,3.958H26.351A5.359,5.359,0,0,1,21,32.385v-.1a.143.143,0,0,1,.143-.143h4.649a.158.158,0,0,1,.151.176,1.587,1.587,0,0,0,.166.893,1.636,1.636,0,0,0,1.466.911h2.3v-1.8H27.6a.147.147,0,0,1-.118-.23c.025-.038.053-.077.082-.122.215-.306.523-.781.829-1.322a10.351,10.351,0,0,0,.574-1.146c.033-.071.059-.143.085-.214.044-.125.09-.242.123-.358.033-.1.059-.2.085-.3a4.63,4.63,0,0,0,.11-1.049c0-.143-.007-.293-.02-.436s-.026-.312-.046-.469c-.013-.138-.038-.275-.064-.418-.033-.209-.079-.416-.132-.625l-.018-.079c-.039-.143-.072-.279-.118-.422-.13-.449-.279-.886-.437-1.3-.058-.163-.123-.319-.189-.475-.1-.235-.2-.449-.286-.651-.046-.092-.085-.176-.125-.261s-.09-.194-.136-.286c-.033-.071-.071-.136-.1-.2l-.281-.519a.092.092,0,0,1,.1-.133l1.759.477h0l.007,0,.232.064.255.072.094.026V20.914a.909.909,0,0,1,.9-.914.893.893,0,0,1,.639.268.919.919,0,0,1,.265.646v1.552l.187.053a.15.15,0,0,1,.043.021l.2.148c.066.053.136.117.222.182.169.136.372.312.593.515.059.051.117.1.169.156.286.266.607.579.912.924.085.1.169.2.255.3s.176.209.255.312c.1.138.215.281.312.431.046.071.1.143.143.214.125.189.235.385.34.58.044.09.09.189.13.286a4.183,4.183,0,0,1,.268.794.992.992,0,0,1,.038.176v.013a1.5,1.5,0,0,1,.033.248,2.655,2.655,0,0,1-.046.82,2.99,2.99,0,0,1-.1.344c-.039.112-.079.228-.13.339a4.592,4.592,0,0,1-.353.671c-.044.079-.1.163-.15.242s-.117.163-.169.24c-.072.1-.15.2-.228.294a3.122,3.122,0,0,1-.222.279c-.11.13-.215.253-.326.372-.066.077-.136.156-.209.227s-.143.15-.209.215c-.11.11-.2.2-.279.266l-.181.166a.148.148,0,0,1-.1.036h-1.4v1.8h1.762a1.649,1.649,0,0,0,1.072-.4,12.856,12.856,0,0,0,1.09-1.072.137.137,0,0,1,.067-.041l4.867-1.407A.144.144,0,0,1,40.726,31.347Z" transform="translate(-14.28 -13.6)" fill="#2081e2"/>
  </g>
</svg>
